<svg xmlns="http://www.w3.org/2000/svg" viewBox="0 0 455.7 455.7"><path d="M173.2 190.2h66.7c9 0 16.3-7.3 16.3-16.3 0-9-7.3-16.3-16.3-16.3h-66.7c-9 0-16.3 7.3-16.3 16.3C156.9 182.9 164.2 190.2 173.2 190.2z"/><path d="M284 265.5h-110.8c-9 0-16.3 7.3-16.3 16.3s7.3 16.3 16.3 16.3h110.8c9 0 16.3-7.3 16.3-16.3S293 265.5 284 265.5z"/><path d="M0 0v455.7h455.7V0H0zM369.9 286.8c0 46.3-37.5 83.7-83.7 83.7H169.6c-46.3 0-83.7-37.5-83.7-83.7V168.9c0-46.3 37.5-83.7 83.7-83.7h62.5c46.3 0 83.7 37.5 83.7 83.7v1.4c0 11 8.9 19.9 19.9 19.9h14.1c11 0 19.9 8.9 19.9 19.9V286.8z"/></svg>