<svg xmlns="http://www.w3.org/2000/svg" viewbox="0 0 24 24" role="img">
  <title>Blogger</title>
  <path d="M22.814 9.031h-1.95c-1 0-1.185-.764-1.185-1.707C19.68 3.279 16.407 0 12.371 0H7.309C3.272 0 0 3.279 0 7.324v9.352C0 20.721 3.272 24 7.309 24h9.383C20.728 24 24 20.721 24 16.676v-6.457c0-.657-.531-1.188-1.186-1.188zM7.386 6h4.229C12.38 6 13 6.671 13 7.5S12.38 9 11.614 9H7.386C6.62 9 6 8.329 6 7.5S6.62 6 7.386 6zm9.134 12H7.48A1.49 1.49 0 016 16.5c0-.83.663-1.5 1.48-1.5h9.039c.817 0 1.48.67 1.48 1.5A1.49 1.49 0 0116.52 18z"/>
</svg>